<svg xmlns="http://www.w3.org/2000/svg" xmlns:xlink="http://www.w3.org/1999/xlink" viewBox="0 0 354.5 86.6"><defs><style>.cls-1{fill:#333;}.cls-1,.cls-2,.cls-3,.cls-4,.cls-5{stroke:#ccc;stroke-miterlimit:10;stroke-width:0.5px;}.cls-2{fill:url(#Безымянный_градиент_6);}.cls-3{fill:url(#Безымянный_градиент_6-2);}.cls-4{fill:url(#Безымянный_градиент_6-3);}.cls-5{fill:url(#Безымянный_градиент_6-4);}</style><linearGradient id="Безымянный_градиент_6" x1="70.18" y1="-10927.47" x2="58.71" y2="-10942.5" gradientTransform="matrix(1, 0, 0, -1, 0, -10872.31)" gradientUnits="userSpaceOnUse"><stop offset="0" stop-color="#48c6ef"/><stop offset="0.17" stop-color="#4fbbeb"/><stop offset="1" stop-color="#6f86d6"/></linearGradient><linearGradient id="Безымянный_градиент_6-2" x1="47.89" y1="-10888.44" x2="36.41" y2="-10903.47" xlink:href="#Безымянный_градиент_6"/><linearGradient id="Безымянный_градиент_6-3" x1="10.5" y1="62.85" x2="28.82" y2="62.85" gradientTransform="matrix(1, 0, 0, 1, 0, 0)" xlink:href="#Безымянный_градиент_6"/><linearGradient id="Безымянный_градиент_6-4" x1="0.25" y1="43.3" x2="83.72" y2="43.3" gradientTransform="matrix(1, 0, 0, 1, 0, 0)" xlink:href="#Безымянный_градиент_6"/></defs><title>Ресурс 6</title><g id="Слой_2" data-name="Слой 2"><g id="QP"><path class="cls-1" d="M104.37,52.85l9.78-37.09Q118.13.6,140,.56h21a3.05,3.05,0,0,1,2.4,1.09,3.73,3.73,0,0,1,1,2.53V52.85a3.38,3.38,0,0,1-1.09,2.55,3.67,3.67,0,0,1-2.61,1h-7.33a3.53,3.53,0,0,1-3.66-3.66V43H122l-2.61,9.82a4.59,4.59,0,0,1-1.75,2.63,4.7,4.7,0,0,1-2.88,1h-7.68A2.61,2.61,0,0,1,104.24,54,6,6,0,0,1,104.37,52.85Zm20.5-20.92h24.82V11.59h-11.1a10.36,10.36,0,0,0-10.29,7.83Z"/><path class="cls-1" d="M170.73,7.93V4.26a3.6,3.6,0,0,1,3.7-3.7h49.45a3.6,3.6,0,0,1,3.7,3.7V7.93a3.53,3.53,0,0,1-1.05,2.63,3.63,3.63,0,0,1-2.65,1H206.5V52.85a3.4,3.4,0,0,1-1.07,2.55,3.6,3.6,0,0,1-2.59,1h-7.36a3.6,3.6,0,0,1-2.59-1,3.4,3.4,0,0,1-1.07-2.55V11.59H174.43a3.63,3.63,0,0,1-2.65-1A3.53,3.53,0,0,1,170.73,7.93Z"/><path class="cls-1" d="M236.48,49.77q-6.92-7-6.92-21.33t7.23-21.27Q244,.25,258.48.25h8.69a29.81,29.81,0,0,1,15.53,4.11q6.92,4.11,6.92,10.27a3.8,3.8,0,0,1-1.36,3.29,4.52,4.52,0,0,1-2.65,1H281q-3.35,0-5.34-3.82t-9.82-3.82h-6.94q-8.53,0-11.57,3.66t-3,13.48q0,9.82,2.73,13.58t9.74,3.76h8q6.27,0,9-2.4a9,9,0,0,0,2.77-6.88h-8.81A3.66,3.66,0,0,1,264,32.82v-3a3.66,3.66,0,0,1,3.66-3.66h19.56a3.66,3.66,0,0,1,3.66,3.66v4.33q0,10.91-6.55,16.77T265.1,56.75h-8.77Q243.4,56.75,236.48,49.77Z"/><path class="cls-1" d="M294.24,52.85,304,15.76Q308,.6,329.9.56h21a3.05,3.05,0,0,1,2.4,1.09,3.73,3.73,0,0,1,1,2.53V52.85a3.38,3.38,0,0,1-1.09,2.55,3.67,3.67,0,0,1-2.61,1h-7.32a3.53,3.53,0,0,1-3.66-3.66V43h-27.7l-2.61,9.82a4.59,4.59,0,0,1-1.75,2.63,4.7,4.7,0,0,1-2.88,1h-7.68A2.61,2.61,0,0,1,294.11,54,6,6,0,0,1,294.24,52.85Zm20.5-20.92h24.82V11.59h-11.1a10.36,10.36,0,0,0-10.29,7.83Z"/><path class="cls-1" d="M104,83.82l1.41-5.37q.58-2.19,3.74-2.2h3a.44.44,0,0,1,.35.16.54.54,0,0,1,.14.37v7a.49.49,0,0,1-.16.37.53.53,0,0,1-.38.15h-1.06a.51.51,0,0,1-.53-.53V82.38h-4l-.38,1.42a.66.66,0,0,1-.25.38.68.68,0,0,1-.42.15h-1.11A.38.38,0,0,1,104,84,.87.87,0,0,1,104,83.82Zm3-3h3.59V77.84h-1.61A1.5,1.5,0,0,0,107.43,79Z"/><path class="cls-1" d="M114.15,81.73V78.5a.34.34,0,0,1,.1-.25.33.33,0,0,1,.25-.1h1.26a.33.33,0,0,1,.25.1.34.34,0,0,1,.1.25v3.23q0,1.35,1.07,1.35a2.27,2.27,0,0,0,1.52-.81V78.5a.34.34,0,0,1,.1-.25.33.33,0,0,1,.24-.1h1.26a.34.34,0,0,1,.35.35V84a.33.33,0,0,1-.1.25.34.34,0,0,1-.25.1H119a.34.34,0,0,1-.34-.34v-.36a3.15,3.15,0,0,1-2.07.82,2.45,2.45,0,0,1-1.78-.67A2.73,2.73,0,0,1,114.15,81.73Z"/><path class="cls-1" d="M125,83.11l.77-.07h.21a.34.34,0,0,1,.25.1.33.33,0,0,1,.1.25V84a.31.31,0,0,1-.1.22.43.43,0,0,1-.25.12,8.07,8.07,0,0,1-1.5.11q-2.42,0-2.42-2.54V76.6a.34.34,0,0,1,.1-.25.33.33,0,0,1,.25-.1h1.26a.33.33,0,0,1,.25.1.34.34,0,0,1,.1.25v1.88h1.57a.34.34,0,0,1,.24.1.33.33,0,0,1,.1.25v.67a.33.33,0,0,1-.1.25.34.34,0,0,1-.24.1H124v2.07a1.32,1.32,0,0,0,.27.89A.91.91,0,0,0,125,83.11Z"/><path class="cls-1" d="M127.69,83.64a3.7,3.7,0,0,1,0-4.78,4.35,4.35,0,0,1,5.06,0,3.7,3.7,0,0,1,0,4.78,4.34,4.34,0,0,1-5.06,0Zm1.43-3.86a2.42,2.42,0,0,0-.35,1.46,2.45,2.45,0,0,0,.35,1.47,1.55,1.55,0,0,0,2.21,0,2.43,2.43,0,0,0,.35-1.47,2.41,2.41,0,0,0-.35-1.46,1.56,1.56,0,0,0-2.21,0Z"/><path class="cls-1" d="M134.66,84V78.5a.34.34,0,0,1,.1-.25.33.33,0,0,1,.25-.1h1.26a.33.33,0,0,1,.25.1.35.35,0,0,1,.1.25v.36a3.64,3.64,0,0,1,.8-.61,2,2,0,0,1,.94-.21,2.2,2.2,0,0,1,2,1.08A3,3,0,0,1,142.5,78a2.32,2.32,0,0,1,1.74.67,2.86,2.86,0,0,1,.64,2V84a.33.33,0,0,1-.34.34h-1.26a.34.34,0,0,1-.25-.1.33.33,0,0,1-.1-.25V80.75q0-1.35-1-1.35-.6,0-1.23.86a3.52,3.52,0,0,1,0,.49V84a.33.33,0,0,1-.1.25.34.34,0,0,1-.24.1h-1.26a.34.34,0,0,1-.25-.1.33.33,0,0,1-.1-.25V80.75q0-1.35-1-1.35a1.56,1.56,0,0,0-1.2.81V84a.33.33,0,0,1-.1.25.34.34,0,0,1-.25.1H135a.33.33,0,0,1-.34-.34Z"/><path class="cls-1" d="M146.79,83.64a3.7,3.7,0,0,1,0-4.78,4.35,4.35,0,0,1,5.06,0,3.7,3.7,0,0,1,0,4.78,4.34,4.34,0,0,1-5.06,0Zm1.43-3.86a2.42,2.42,0,0,0-.35,1.46,2.45,2.45,0,0,0,.35,1.47,1.55,1.55,0,0,0,2.21,0,2.43,2.43,0,0,0,.35-1.47,2.41,2.41,0,0,0-.35-1.46,1.56,1.56,0,0,0-2.21,0Z"/><path class="cls-1" d="M156.71,83.11l.77-.07h.21a.34.34,0,0,1,.25.1.33.33,0,0,1,.1.25V84a.31.31,0,0,1-.1.22.43.43,0,0,1-.25.12,8.07,8.07,0,0,1-1.5.11q-2.42,0-2.42-2.54V76.6a.34.34,0,0,1,.1-.25.33.33,0,0,1,.25-.1h1.26a.33.33,0,0,1,.25.1.34.34,0,0,1,.1.25v1.88h1.57a.34.34,0,0,1,.24.1.33.33,0,0,1,.1.25v.67a.33.33,0,0,1-.1.25.34.34,0,0,1-.24.1h-1.57v2.07a1.32,1.32,0,0,0,.27.89A.91.91,0,0,0,156.71,83.11Z"/><path class="cls-1" d="M159,77v-.19a.65.65,0,0,1,.17-.47.64.64,0,0,1,.48-.17h.7a.65.65,0,0,1,.47.17.64.64,0,0,1,.17.48V77a.65.65,0,0,1-.17.47.64.64,0,0,1-.48.18h-.7A.6.6,0,0,1,159,77Zm0,7V78.64a.33.33,0,0,1,.1-.25.34.34,0,0,1,.24-.1h1.26a.33.33,0,0,1,.25.1.34.34,0,0,1,.1.25V84a.33.33,0,0,1-.1.25.34.34,0,0,1-.25.1h-1.26A.33.33,0,0,1,159,84Z"/><path class="cls-1" d="M162.05,78.15h1.08a.83.83,0,0,1,.46.14.77.77,0,0,1,.3.36l1.54,3.51L167,78.65a.77.77,0,0,1,.3-.36.83.83,0,0,1,.46-.14h1.09a.25.25,0,0,1,.26.15.3.3,0,0,1,0,.14.59.59,0,0,1-.05.21l-2.43,5.19a.83.83,0,0,1-.32.36.83.83,0,0,1-.45.14H165a.81.81,0,0,1-.45-.14.84.84,0,0,1-.32-.36l-2.43-5.19a.53.53,0,0,1-.06-.21A.25.25,0,0,1,162.05,78.15Z"/><path class="cls-1" d="M170.32,83.62a3.68,3.68,0,0,1,0-4.75,3.37,3.37,0,0,1,2.42-.83,3.41,3.41,0,0,1,2.42.81,3,3,0,0,1,.87,2.32v.32a.34.34,0,0,1-.35.35h-4.24a1.49,1.49,0,0,0,.4,1,1.57,1.57,0,0,0,1.09.32,1.27,1.27,0,0,0,1-.34.86.86,0,0,1,.68-.34h.84a.34.34,0,0,1,.35.35q0,1.62-3.08,1.61A3.38,3.38,0,0,1,170.32,83.62Zm1.11-3H174q-.06-1.33-1.3-1.33T171.43,80.65Z"/><path class="cls-1" d="M180.53,77.31v-.53a.52.52,0,0,1,.54-.54h7.15a.52.52,0,0,1,.54.54v.53a.51.51,0,0,1-.15.38.52.52,0,0,1-.38.15H185.7v6a.49.49,0,0,1-.15.37.52.52,0,0,1-.37.15h-1.07a.52.52,0,0,1-.37-.15.49.49,0,0,1-.15-.37v-6h-2.51a.53.53,0,0,1-.38-.15A.51.51,0,0,1,180.53,77.31Z"/><path class="cls-1" d="M189.51,83.62a3.68,3.68,0,0,1,0-4.75,3.37,3.37,0,0,1,2.42-.83,3.41,3.41,0,0,1,2.42.81,3,3,0,0,1,.87,2.32v.32a.34.34,0,0,1-.35.35h-4.24a1.49,1.49,0,0,0,.4,1,1.57,1.57,0,0,0,1.09.32,1.27,1.27,0,0,0,1-.34.86.86,0,0,1,.68-.34h.84a.34.34,0,0,1,.35.35q0,1.62-3.08,1.61A3.38,3.38,0,0,1,189.51,83.62Zm1.11-3h2.62q-.06-1.33-1.3-1.33T190.62,80.65Z"/><path class="cls-1" d="M199.25,84.45a3.49,3.49,0,0,1-2.46-.81,3.7,3.7,0,0,1,0-4.78,3.43,3.43,0,0,1,2.43-.82,4.74,4.74,0,0,1,2.4.5,1.6,1.6,0,0,1,.84,1.47.33.33,0,0,1-.1.25.35.35,0,0,1-.25.1h-.84a.77.77,0,0,1-.65-.41,1.28,1.28,0,0,0-1.18-.53,1.41,1.41,0,0,0-1.18.43,2.32,2.32,0,0,0-.34,1.41,2.27,2.27,0,0,0,.35,1.41,1.46,1.46,0,0,0,1.21.43,1.29,1.29,0,0,0,1.19-.53.76.76,0,0,1,.65-.42h.84a.34.34,0,0,1,.25.1.33.33,0,0,1,.1.25,1.6,1.6,0,0,1-.84,1.47A4.79,4.79,0,0,1,199.25,84.45Z"/><path class="cls-1" d="M203.43,84V76.6a.34.34,0,0,1,.1-.25.33.33,0,0,1,.25-.1H205a.33.33,0,0,1,.25.1.34.34,0,0,1,.1.25v2.26a3.15,3.15,0,0,1,2.07-.82,2.45,2.45,0,0,1,1.78.67,2.73,2.73,0,0,1,.69,2V84a.33.33,0,0,1-.1.25.34.34,0,0,1-.25.1h-1.26A.34.34,0,0,1,208,84V80.75q0-1.35-1.08-1.35a2.25,2.25,0,0,0-1.51.81V84a.34.34,0,0,1-.34.34h-1.26a.34.34,0,0,1-.34-.34Z"/><path class="cls-1" d="M211.31,84V78.5a.34.34,0,0,1,.1-.25.33.33,0,0,1,.25-.1h1.26a.33.33,0,0,1,.25.1.34.34,0,0,1,.1.25v.36a3.15,3.15,0,0,1,2.07-.82,2.45,2.45,0,0,1,1.78.67,2.73,2.73,0,0,1,.69,2V84a.33.33,0,0,1-.1.25.34.34,0,0,1-.25.1h-1.26a.34.34,0,0,1-.34-.34V80.75q0-1.35-1.08-1.35a2.25,2.25,0,0,0-1.51.81V84a.34.34,0,0,1-.34.34h-1.26a.34.34,0,0,1-.34-.34Z"/><path class="cls-1" d="M219.71,83.64a3.7,3.7,0,0,1,0-4.78,4.35,4.35,0,0,1,5.06,0,3.7,3.7,0,0,1,0,4.78,4.34,4.34,0,0,1-5.06,0Zm1.43-3.86a2.42,2.42,0,0,0-.35,1.46,2.45,2.45,0,0,0,.35,1.47,1.55,1.55,0,0,0,2.21,0,2.43,2.43,0,0,0,.35-1.47,2.41,2.41,0,0,0-.35-1.46,1.56,1.56,0,0,0-2.21,0Z"/><path class="cls-1" d="M226.68,84V76.6a.34.34,0,0,1,.1-.25.33.33,0,0,1,.25-.1h1.26a.33.33,0,0,1,.25.1.34.34,0,0,1,.1.25V84a.34.34,0,0,1-.34.34H227a.34.34,0,0,1-.34-.34Z"/><path class="cls-1" d="M230.55,83.64a3.7,3.7,0,0,1,0-4.78,4.35,4.35,0,0,1,5.06,0,3.7,3.7,0,0,1,0,4.78,4.34,4.34,0,0,1-5.06,0ZM232,79.78a2.42,2.42,0,0,0-.35,1.46A2.45,2.45,0,0,0,232,82.7a1.55,1.55,0,0,0,2.21,0,2.43,2.43,0,0,0,.35-1.47,2.41,2.41,0,0,0-.35-1.46,1.56,1.56,0,0,0-2.21,0Z"/><path class="cls-1" d="M238,83.09a2.87,2.87,0,0,1-.79-2.14,2.66,2.66,0,0,1,.9-2.14,3.84,3.84,0,0,1,2.57-.77,8.32,8.32,0,0,1,1.7.18,4.46,4.46,0,0,1,1.32.45v5.22a2.14,2.14,0,0,1-.83,1.86,3.91,3.91,0,0,1-2.32.6,5.64,5.64,0,0,1-2.3-.38,1.28,1.28,0,0,1-.81-1.24.34.34,0,0,1,.35-.35h.84a.79.79,0,0,1,.65.3,1.35,1.35,0,0,0,1.1.38,1.68,1.68,0,0,0,1.08-.26,1.19,1.19,0,0,0,.29-.92v-.26a6.81,6.81,0,0,1-1.69.23A2.82,2.82,0,0,1,238,83.09Zm2.56-3.68q-1.34,0-1.34,1.54t1.3,1.55a5.15,5.15,0,0,0,1.22-.17v-2.8A4.53,4.53,0,0,0,240.52,79.41Z"/><path class="cls-1" d="M246.13,84.92l.74.1q.79,0,1.11-1.17a2.3,2.3,0,0,1-1.6-.58,4.62,4.62,0,0,1-1.1-2.06l-.84-2.72a.3.3,0,0,1,0-.1.25.25,0,0,1,.07-.14.28.28,0,0,1,.21-.09h1.18a.52.52,0,0,1,.31.11.5.5,0,0,1,.19.27l.74,2.39a3.75,3.75,0,0,0,.56,1.22.86.86,0,0,0,.67.34l1.12-3.95a.53.53,0,0,1,.18-.27.45.45,0,0,1,.3-.11h1.19a.24.24,0,0,1,.21.09.27.27,0,0,1,.07.15.37.37,0,0,1,0,.1l-1.48,5.27a4.71,4.71,0,0,1-1,2,2,2,0,0,1-1.5.6,8.5,8.5,0,0,1-1.3-.07,1,1,0,0,1-.48-.17.32.32,0,0,1-.1-.23v-.62a.34.34,0,0,1,.1-.25.33.33,0,0,1,.25-.1Z"/><path class="cls-1" d="M256.92,83.37a4.22,4.22,0,0,1-1-3.09,4.08,4.08,0,0,1,1-3.08,4.38,4.38,0,0,1,3.14-1h1.26a4.31,4.31,0,0,1,2.25.59,1.73,1.73,0,0,1,1,1.49.55.55,0,0,1-.2.48.65.65,0,0,1-.38.14h-.67a.86.86,0,0,1-.77-.55q-.29-.55-1.42-.55h-1a2.11,2.11,0,0,0-1.67.53,3.17,3.17,0,0,0-.44,2,3.53,3.53,0,0,0,.39,2,1.63,1.63,0,0,0,1.41.54H261a1.94,1.94,0,0,0,1.3-.35,1.3,1.3,0,0,0,.4-1h-1.27a.53.53,0,0,1-.53-.53v-.44a.53.53,0,0,1,.53-.53h2.83a.53.53,0,0,1,.53.53v.63a3.09,3.09,0,0,1-.95,2.43,4,4,0,0,1-2.78.85h-1.27A3.86,3.86,0,0,1,256.92,83.37Z"/><path class="cls-1" d="M270.1,79.59l-.87,0a1.93,1.93,0,0,0-1.45.83V84a.33.33,0,0,1-.1.25.34.34,0,0,1-.25.1h-1.26a.33.33,0,0,1-.34-.34V78.5a.34.34,0,0,1,.1-.25.33.33,0,0,1,.25-.1h1.26a.33.33,0,0,1,.25.1.35.35,0,0,1,.1.25v.36a4.75,4.75,0,0,1,1.11-.62,4,4,0,0,1,1.4-.2.34.34,0,0,1,.25.1.33.33,0,0,1,.1.25v.86a.33.33,0,0,1-.1.25.34.34,0,0,1-.25.1Z"/><path class="cls-1" d="M272,83.64a3.7,3.7,0,0,1,0-4.78,4.35,4.35,0,0,1,5.06,0,3.7,3.7,0,0,1,0,4.78,4.34,4.34,0,0,1-5.06,0Zm1.43-3.86a2.42,2.42,0,0,0-.35,1.46,2.45,2.45,0,0,0,.35,1.47,1.55,1.55,0,0,0,2.21,0,2.43,2.43,0,0,0,.35-1.47,2.41,2.41,0,0,0-.35-1.46,1.56,1.56,0,0,0-2.21,0Z"/><path class="cls-1" d="M278.93,81.73V78.5a.34.34,0,0,1,.1-.25.33.33,0,0,1,.25-.1h1.26a.33.33,0,0,1,.25.1.34.34,0,0,1,.1.25v3.23q0,1.35,1.07,1.35a2.27,2.27,0,0,0,1.52-.81V78.5a.34.34,0,0,1,.1-.25.33.33,0,0,1,.24-.1h1.26a.34.34,0,0,1,.35.35V84a.33.33,0,0,1-.1.25.34.34,0,0,1-.25.1h-1.26a.34.34,0,0,1-.34-.34v-.36a3.15,3.15,0,0,1-2.07.82,2.45,2.45,0,0,1-1.78-.67A2.73,2.73,0,0,1,278.93,81.73Z"/><path class="cls-1" d="M286.81,85.89V78.5a.34.34,0,0,1,.1-.25.33.33,0,0,1,.25-.1h1.09a.33.33,0,0,1,.24.1.34.34,0,0,1,.1.25v.17a3.49,3.49,0,0,1,2.07-.63,2.6,2.6,0,0,1,2,.83,3.32,3.32,0,0,1,.79,2.38,3.23,3.23,0,0,1-.82,2.37,3,3,0,0,1-2.2.82,5.5,5.5,0,0,1-1.63-.29v1.73a.34.34,0,0,1-.1.25.33.33,0,0,1-.25.1h-1.26a.33.33,0,0,1-.25-.1A.34.34,0,0,1,286.81,85.89Zm2-3a4.17,4.17,0,0,0,1.22.23,1.27,1.27,0,0,0,1.1-.44,2.39,2.39,0,0,0,.32-1.4,2.48,2.48,0,0,0-.31-1.4,1,1,0,0,0-.92-.44,2.76,2.76,0,0,0-1.42.51Z"/><path class="cls-1" d="M297.94,83.82l1.41-5.37q.58-2.19,3.74-2.2h3a.44.44,0,0,1,.35.16.54.54,0,0,1,.14.37v7a.49.49,0,0,1-.16.37.53.53,0,0,1-.38.15H305a.51.51,0,0,1-.53-.53V82.38h-4l-.38,1.42a.66.66,0,0,1-.25.38.68.68,0,0,1-.42.15h-1.11a.38.38,0,0,1-.41-.35A.87.87,0,0,1,297.94,83.82Zm3-3h3.59V77.84h-1.61A1.5,1.5,0,0,0,301.4,79Z"/><path class="cls-1" d="M308.12,81.73V78.5a.34.34,0,0,1,.1-.25.33.33,0,0,1,.25-.1h1.26a.33.33,0,0,1,.25.1.34.34,0,0,1,.1.25v3.23q0,1.35,1.07,1.35a2.27,2.27,0,0,0,1.52-.81V78.5a.34.34,0,0,1,.1-.25.33.33,0,0,1,.24-.1h1.26a.34.34,0,0,1,.35.35V84a.33.33,0,0,1-.1.25.34.34,0,0,1-.25.1H313a.34.34,0,0,1-.34-.34v-.36a3.15,3.15,0,0,1-2.07.82,2.45,2.45,0,0,1-1.78-.67A2.73,2.73,0,0,1,308.12,81.73Z"/><path class="cls-1" d="M315.64,79.86q0-1.82,2.94-1.82,3.09,0,3.09,1.62a.34.34,0,0,1-.1.25.33.33,0,0,1-.25.1h-.84a.85.85,0,0,1-.68-.34,1.36,1.36,0,0,0-1.09-.34q-1.12,0-1.12.54,0,.25.44.42a6.57,6.57,0,0,0,1.07.3,12,12,0,0,1,1.25.32,2.59,2.59,0,0,1,1.06.63,1.47,1.47,0,0,1,.44,1.09q0,1.82-3.1,1.82t-3.1-1.61a.34.34,0,0,1,.35-.35h.84a.85.85,0,0,1,.68.34,1.36,1.36,0,0,0,1.09.34q1.29,0,1.29-.54,0-.25-.44-.42a7,7,0,0,0-1.07-.3q-.63-.13-1.25-.33a2.59,2.59,0,0,1-1.06-.63A1.46,1.46,0,0,1,315.64,79.86Z"/><path class="cls-1" d="M325.84,83.11l.77-.07h.21a.34.34,0,0,1,.25.1.33.33,0,0,1,.1.25V84a.31.31,0,0,1-.1.22.43.43,0,0,1-.25.12,8.07,8.07,0,0,1-1.5.11q-2.42,0-2.42-2.54V76.6a.34.34,0,0,1,.1-.25.33.33,0,0,1,.25-.1h1.26a.33.33,0,0,1,.25.1.34.34,0,0,1,.1.25v1.88h1.57a.34.34,0,0,1,.24.1.33.33,0,0,1,.1.25v.67a.33.33,0,0,1-.1.25.34.34,0,0,1-.24.1h-1.57v2.07a1.32,1.32,0,0,0,.27.89A.91.91,0,0,0,325.84,83.11Z"/><path class="cls-1" d="M332.36,79.59l-.87,0a1.93,1.93,0,0,0-1.45.83V84a.33.33,0,0,1-.1.25.34.34,0,0,1-.25.1h-1.26a.33.33,0,0,1-.34-.34V78.5a.34.34,0,0,1,.1-.25.33.33,0,0,1,.25-.1h1.26a.33.33,0,0,1,.25.1.35.35,0,0,1,.1.25v.36a4.75,4.75,0,0,1,1.11-.62,4,4,0,0,1,1.4-.2.34.34,0,0,1,.25.1.33.33,0,0,1,.1.25v.86a.33.33,0,0,1-.1.25.34.34,0,0,1-.25.1Z"/><path class="cls-1" d="M334,83.93a1.68,1.68,0,0,1-.75-1.47A1.65,1.65,0,0,1,334,81a3.36,3.36,0,0,1,1.92-.51h1.87a1.23,1.23,0,0,0-.28-.92,1.41,1.41,0,0,0-1-.26,1.19,1.19,0,0,0-1,.34.85.85,0,0,1-.68.34H334a.34.34,0,0,1-.25-.1.33.33,0,0,1-.1-.25q0-1.62,3.07-1.62a3.54,3.54,0,0,1,2.15.6,2.16,2.16,0,0,1,.81,1.86V84a.33.33,0,0,1-.34.34h-1.09a.33.33,0,0,1-.25-.1.34.34,0,0,1-.1-.25v-.17a3.42,3.42,0,0,1-2.05.63A3.29,3.29,0,0,1,334,83.93Zm1.44-2a.62.62,0,0,0-.23.5.62.62,0,0,0,.24.5,1,1,0,0,0,.67.2,3.1,3.1,0,0,0,1.67-.51v-.88H336A.94.94,0,0,0,335.42,82Z"/><path class="cls-1" d="M341.11,84V76.6a.34.34,0,0,1,.1-.25.33.33,0,0,1,.25-.1h1.26a.33.33,0,0,1,.25.1.34.34,0,0,1,.1.25V84a.34.34,0,0,1-.34.34h-1.26a.34.34,0,0,1-.34-.34Z"/><path class="cls-1" d="M344.45,77v-.19a.65.65,0,0,1,.17-.47.64.64,0,0,1,.48-.17h.7a.65.65,0,0,1,.47.17.64.64,0,0,1,.17.48V77a.65.65,0,0,1-.17.47.64.64,0,0,1-.48.18h-.7a.6.6,0,0,1-.65-.65Zm0,7V78.64a.33.33,0,0,1,.1-.25.34.34,0,0,1,.24-.1h1.26a.33.33,0,0,1,.25.1.34.34,0,0,1,.1.25V84a.33.33,0,0,1-.1.25.34.34,0,0,1-.25.1h-1.26a.33.33,0,0,1-.34-.34Z"/><path class="cls-1" d="M348.22,83.93a1.68,1.68,0,0,1-.75-1.47,1.65,1.65,0,0,1,.75-1.46,3.36,3.36,0,0,1,1.92-.51H352a1.23,1.23,0,0,0-.28-.92,1.41,1.41,0,0,0-1-.26,1.19,1.19,0,0,0-1,.34.85.85,0,0,1-.68.34h-.84a.34.34,0,0,1-.25-.1.33.33,0,0,1-.1-.25Q347.93,78,351,78a3.54,3.54,0,0,1,2.15.6A2.16,2.16,0,0,1,354,80.5V84a.33.33,0,0,1-.34.34h-1.09a.33.33,0,0,1-.25-.1.34.34,0,0,1-.1-.25v-.17a3.43,3.43,0,0,1-2.05.63A3.29,3.29,0,0,1,348.22,83.93Zm1.44-2a.62.62,0,0,0-.23.5.62.62,0,0,0,.24.5,1,1,0,0,0,.67.2,3.1,3.1,0,0,0,1.67-.51v-.88h-1.73A.94.94,0,0,0,349.66,82Z"/><rect class="cls-1" x="104.24" y="66.53" width="250.01" height="1.44"/><path class="cls-2" d="M56.21,56.93l7.08-4.07a2.1,2.1,0,0,1,2.1,0l7,4.07a2.1,2.1,0,0,1,1,1.82v8.19a2.1,2.1,0,0,1-1,1.82l-7,4.07a2.1,2.1,0,0,1-2.1,0l-7.08-4.07a2.1,2.1,0,0,1-1.05-1.82V58.75A2.1,2.1,0,0,1,56.21,56.93Z"/><path class="cls-3" d="M33.91,17.91,41,13.83a2.1,2.1,0,0,1,2.1,0l7,4.07a2.1,2.1,0,0,1,1,1.82v8.2a2.1,2.1,0,0,1-1,1.82l-7,4.07a2.1,2.1,0,0,1-2.1,0l-7.08-4.08a2.1,2.1,0,0,1-1.05-1.82V19.73A2.1,2.1,0,0,1,33.91,17.91Z"/><path class="cls-4" d="M10.5,58.75v8.19a2.1,2.1,0,0,0,1.05,1.82l7.08,4.08a2.1,2.1,0,0,0,2.1,0l7-4.07a2.1,2.1,0,0,0,1-1.82v-8.2a2.1,2.1,0,0,0-1-1.82l-7-4.07a2.1,2.1,0,0,0-2.1,0l-7.08,4.08A2.1,2.1,0,0,0,10.5,58.75Z"/><path class="cls-5" d="M63.23,40.94l-4.33,2.52A2.1,2.1,0,0,1,56,42.7l-.93-1.61a2.1,2.1,0,0,1,.76-2.86l4.52-2.64a2.1,2.1,0,0,0,1-1.81v-20a2.1,2.1,0,0,0-1-1.82L43,1.91a2.1,2.1,0,0,0-2.11,0L23.65,12a2.1,2.1,0,0,0-1,1.81v20a2.1,2.1,0,0,0,1,1.82l4.57,2.64A2.1,2.1,0,0,1,29,41.15l-.94,1.62a2.1,2.1,0,0,1-2.87.77l-4.49-2.6a2.1,2.1,0,0,0-2.11,0L1.29,51a2.1,2.1,0,0,0-1,1.81v20a2.1,2.1,0,0,0,1,1.82l17.34,10a2.1,2.1,0,0,0,2.11,0L38,74.6a2.1,2.1,0,0,0,1-1.81V67.55a2.1,2.1,0,0,1,2.1-2.1H42.8a2.1,2.1,0,0,1,2.1,2.1v5.29a2.1,2.1,0,0,0,1,1.82l17.34,10a2.1,2.1,0,0,0,2.11,0L82.68,74.6a2.1,2.1,0,0,0,1-1.81v-20a2.1,2.1,0,0,0-1-1.82l-17.33-10A2.1,2.1,0,0,0,63.23,40.94Zm-34-25.76L41,8.39a2.1,2.1,0,0,1,2.1,0l11.74,6.79a2.1,2.1,0,0,1,1,1.82V30.59a2.1,2.1,0,0,1-1,1.82L43.1,39.19a2.1,2.1,0,0,1-2.1,0L29.25,32.4a2.1,2.1,0,0,1-1-1.82V17A2.1,2.1,0,0,1,29.25,15.18Zm3.24,56.25L20.74,78.21a2.1,2.1,0,0,1-2.1,0L6.89,71.43a2.1,2.1,0,0,1-1-1.82V56a2.1,2.1,0,0,1,1-1.82l11.75-6.79a2.1,2.1,0,0,1,2.1,0L32.49,54.2a2.1,2.1,0,0,1,1,1.82V69.61A2.1,2.1,0,0,1,32.49,71.43Zm6.58-13.35V52.78A2.1,2.1,0,0,0,38,51l-4.63-2.68a2.1,2.1,0,0,1-.77-2.87l.94-1.62A2.1,2.1,0,0,1,36.43,43L41,45.67a2.1,2.1,0,0,0,2.11,0L47.67,43a2.1,2.1,0,0,1,2.88.76l.93,1.61a2.1,2.1,0,0,1-.76,2.86L45.95,51a2.1,2.1,0,0,0-1,1.81v5.24a2.1,2.1,0,0,1-2.1,2.1H41.16A2.1,2.1,0,0,1,39.06,58.07ZM77.14,71.43,65.4,78.21a2.1,2.1,0,0,1-2.1,0L51.54,71.43a2.1,2.1,0,0,1-1-1.82V56a2.1,2.1,0,0,1,1-1.82L63.3,47.41a2.1,2.1,0,0,1,2.1,0L77.14,54.2a2.1,2.1,0,0,1,1,1.82V69.61A2.1,2.1,0,0,1,77.14,71.43Z"/></g></g></svg>